<svg xmlns="http://www.w3.org/2000/svg" viewBox="0 0 282.59 80.33"><defs><style>.cls-1{fill:#f89c1f;}.cls-2{fill:#fff;}.cls-3{fill:#16202e;}</style></defs><title>Asset 14</title><g id="Layer_2" data-name="Layer 2"><g id="Layer_1-2" data-name="Layer 1"><circle class="cls-1" cx="40.17" cy="40.17" r="40.17"/><path class="cls-2" d="M67.38,40.05v2.6a3.65,3.65,0,0,1-3.65,3.65H26.59a15.37,15.37,0,0,0,14.34,9.58,24.45,24.45,0,0,0,2.89-.19l.47-.06a3.65,3.65,0,0,1,4.08,3.62v3.58a3.64,3.64,0,0,1-3.27,3.63l-.38,0a36.15,36.15,0,0,1-3.79.2A26.45,26.45,0,1,1,67.37,40ZM55.7,35.47a15.47,15.47,0,0,0-29.55,0Z"/><path class="cls-3" d="M95.62,18.37h9.31V52.24H126v8.47H95.62Z"/><path class="cls-3" d="M129.92,44.68v-.12c0-9.31,7.5-16.87,17.6-16.87S165,35.12,165,44.44v.12c0,9.31-7.5,16.87-17.6,16.87S129.92,54,129.92,44.68Zm26,0v-.12c0-4.78-3.45-9-8.53-9-5.26,0-8.41,4.05-8.41,8.83v.12c0,4.78,3.45,9,8.53,9C152.78,53.51,155.93,49.46,155.93,44.68Z"/><path class="cls-3" d="M171.66,28.29h9.19v6.53c1.87-4.48,4.9-7.38,10.34-7.14V37.3h-.48c-6.11,0-9.86,3.69-9.86,11.43v12h-9.19Z"/><path class="cls-3" d="M194.46,44.68v-.12c0-9.25,6.59-16.87,16-16.87,10.83,0,15.79,8.41,15.79,17.6,0,.73-.06,1.57-.12,2.42H203.6c.91,4.17,3.81,6.35,7.92,6.35a10.62,10.62,0,0,0,7.86-3.33l5.26,4.66a16.21,16.21,0,0,1-13.25,6C201.66,61.43,194.46,54.6,194.46,44.68ZM217.33,42c-.54-4.11-3-6.9-6.83-6.9s-6.29,2.72-7,6.9Z"/><path class="cls-3" d="M233.12,28.29h9.19v4.6c2.12-2.72,4.9-5.2,9.56-5.2,4.23,0,7.44,1.87,9.13,5.14a13.35,13.35,0,0,1,10.64-5.14c6.83,0,10.95,4.11,10.95,11.91V60.71H273.4V42.62c0-4.35-1.94-6.59-5.38-6.59s-5.56,2.24-5.56,6.59V60.71h-9.19V42.62c0-4.35-1.94-6.59-5.38-6.59s-5.56,2.24-5.56,6.59V60.71h-9.19Z"/></g></g></svg>